<?xml version="1.0" encoding="UTF-8" ?>
<svg version="1.1" width="32" height="32" xmlns="http://www.w3.org/2000/svg" shape-rendering="crispEdges">
<rect x="12" y="4" width="3" height="2" fill="#707376" />
<rect x="15" y="4" width="2" height="2" fill="#444444" />
<rect x="17" y="4" width="3" height="2" fill="#000000" />
<rect x="10" y="5" width="2" height="2" fill="#707376" />
<rect x="20" y="5" width="2" height="2" fill="#000000" />
<rect x="9" y="6" width="1" height="3" fill="#707376" />
<rect x="12" y="6" width="1" height="1" fill="#707376" />
<rect x="19" y="6" width="1" height="1" fill="#000000" />
<rect x="22" y="6" width="1" height="3" fill="#000000" />
<rect x="8" y="7" width="1" height="3" fill="#707376" />
<rect x="10" y="7" width="1" height="1" fill="#707376" />
<rect x="21" y="7" width="1" height="1" fill="#000000" />
<rect x="23" y="7" width="1" height="3" fill="#000000" />
<rect x="7" y="8" width="1" height="3" fill="#707376" />
<rect x="24" y="8" width="1" height="3" fill="#000000" />
<rect x="6" y="9" width="1" height="4" fill="#707376" />
<rect x="25" y="9" width="1" height="4" fill="#000000" />
<rect x="5" y="10" width="1" height="12" fill="#707376" />
<rect x="26" y="10" width="1" height="9" fill="#000000" />
<rect x="4" y="12" width="1" height="8" fill="#707376" />
<rect x="27" y="12" width="1" height="8" fill="#000000" />
<rect x="6" y="19" width="1" height="4" fill="#707376" />
<rect x="25" y="19" width="2" height="2" fill="#444444" />
<rect x="7" y="21" width="1" height="3" fill="#707376" />
<rect x="24" y="21" width="3" height="1" fill="#707376" />
<rect x="8" y="22" width="1" height="3" fill="#707376" />
<rect x="23" y="22" width="3" height="1" fill="#707376" />
<rect x="9" y="23" width="1" height="3" fill="#707376" />
<rect x="22" y="23" width="3" height="1" fill="#707376" />
<rect x="10" y="24" width="1" height="3" fill="#707376" />
<rect x="21" y="24" width="3" height="1" fill="#707376" />
<rect x="11" y="25" width="2" height="2" fill="#707376" />
<rect x="19" y="25" width="4" height="1" fill="#707376" />
<rect x="13" y="26" width="9" height="1" fill="#707376" />
<rect x="12" y="27" width="8" height="1" fill="#707376" />
</svg>